HIERARCHY
ROOT SpineBase
{
  OFFSET 0.000000 0.000000 0.000000
  CHANNELS 6 Xposition Yposition Zposition Zrotation Xrotation Yrotation
  JOINT SpineMid
  {
    OFFSET 0.000000 6.051658 0.000000
    CHANNELS 3 Zrotation Xrotation Yrotation
    JOINT SpineShoulder
    {
      OFFSET -0.651617 4.720117 -0.212154
      CHANNELS 3 Zrotation Xrotation Yrotation
      JOINT Neck
      {
        OFFSET -0.490267 1.688314 -0.134026
        CHANNELS 3 Zrotation Xrotation Yrotation
        JOINT Head
        {
          OFFSET 3.792524 -5.949144 14.040080
          CHANNELS 3 Zrotation Xrotation Yrotation
          End Site
          {
            OFFSET 0 0 0
          }
        }
      }
      JOINT ShoulderLeft
      {
        OFFSET 30.128009 40.914626 39.999395
        CHANNELS 3 Zrotation Xrotation Yrotation
        JOINT ElbowLeft
        {
          OFFSET -8.082477 10.183664 16.450924
          CHANNELS 3 Zrotation Xrotation Yrotation
          JOINT WristLeft
          {
            OFFSET -9.520208 -18.839763 -18.541508
            CHANNELS 3 Zrotation Xrotation Yrotation
            JOINT HandLeft
            {
              OFFSET 0.847414 5.067973 5.556348
              CHANNELS 3 Zrotation Xrotation Yrotation
              JOINT HandTipLeft
              {
                OFFSET -6.834084 -1.603616 -6.395259
                CHANNELS 3 Zrotation Xrotation Yrotation
                End Site
                {
                  OFFSET 0 0 0
                }
              }
              JOINT ThumbLeft
              {
                OFFSET 0.073403 -4.306801 1.362935
                CHANNELS 3 Zrotation Xrotation Yrotation
                End Site
                {
                  OFFSET 0 0 0
                }
              }
            }
          }
        }
      }
      JOINT ShoulderRight
      {
        OFFSET -14.782529 16.690324 -13.280649
        CHANNELS 3 Zrotation Xrotation Yrotation
        JOINT ElbowRight
        {
          OFFSET 13.037977 -18.669709 13.126090
          CHANNELS 3 Zrotation Xrotation Yrotation
          JOINT WristRight
          {
            OFFSET 11.851677 -20.116751 13.024078
            CHANNELS 3 Zrotation Xrotation Yrotation
            JOINT HandRight
            {
              OFFSET 1.475194 -2.765488 -1.094014
              CHANNELS 3 Zrotation Xrotation Yrotation
              JOINT HandTipRight
              {
                OFFSET 2.381884 -2.592133 2.131023
                CHANNELS 3 Zrotation Xrotation Yrotation
                End Site
                {
                  OFFSET 0 0 0
                }
              }
              JOINT ThumbRight
              {
                OFFSET 0.892221 1.222714 1.674222
                CHANNELS 3 Zrotation Xrotation Yrotation
                End Site
                {
                  OFFSET 0 0 0
                }
              }
            }
          }
        }
      }
    }
  }
  JOINT HipLeft
  {
    OFFSET 5.606621 -0.383935 5.638976
    CHANNELS 3 Zrotation Xrotation Yrotation
    JOINT KneeLeft
    {
      OFFSET -35.596595 -31.578837 -35.725438
      CHANNELS 3 Zrotation Xrotation Yrotation
      JOINT AnkleLeft
      {
        OFFSET 32.451580 62.598648 -35.123262
        CHANNELS 3 Zrotation Xrotation Yrotation
        JOINT FootLeft
        {
          OFFSET -7.976135 9.517974 6.049162
          CHANNELS 3 Zrotation Xrotation Yrotation
          End Site
          {
            OFFSET 0 0 0
          }
        }
      }
    }
  }
  JOINT HipRight
  {
    OFFSET -11.804499 3.355153 -6.878204
    CHANNELS 3 Zrotation Xrotation Yrotation
    JOINT KneeRight
    {
      OFFSET 28.888260 27.134143 6.613785
      CHANNELS 3 Zrotation Xrotation Yrotation
      JOINT AnkleRight
      {
        OFFSET -31.580159 12.587939 13.598813
        CHANNELS 3 Zrotation Xrotation Yrotation
        JOINT FootRight
        {
          OFFSET -5.772863 9.709550 -8.355714
          CHANNELS 3 Zrotation Xrotation Yrotation
          End Site
          {
            OFFSET 0 0 0
          }
        }
      }
    }
  }
}
MOTION
Frames: 9
Frame Time: 0.033333
419.082364 42.149265 92.677430 -0.000000 0.000000 144.286934 -0.000000 0.000000 -144.286934 -0.000000 0.000000 0.000000 -0.000000 0.000000 0.000000 0.000000 0.000000 0.000000 -0.000000 0.000000 0.000000 -0.000000 0.000000 0.000000 -0.000000 0.000000 0.000000 -0.000000 0.000000 0.000000 0.000000 0.000000 0.000000 0.000000 0.000000 0.000000 -0.000000 0.000000 0.000000 -0.000000 0.000000 0.000000 -0.000000 0.000000 0.000000 -0.000000 0.000000 0.000000 0.000000 0.000000 0.000000 0.000000 0.000000 0.000000 -0.000000 0.000000 -144.286934 -0.000000 0.000000 0.000000 -0.000000 0.000000 0.000000 0.000000 0.000000 0.000000 -0.000000 0.000000 -144.286934 -0.000000 0.000000 0.000000 -0.000000 0.000000 0.000000 0.000000 0.000000 0.000000
420.231385 45.358104 93.899971 -2.335706 2.860305 137.860341 0.972173 -0.140588 -137.432510 0.352469 -0.347274 0.385558 2.564553 -3.306023 -0.676700 0.000000 0.000000 0.000000 2.564553 -3.306023 -0.676700 1.004085 -0.920011 -0.521667 107.110784 -11.054618 -129.421420 106.114004 -42.845985 -155.128949 0.000000 0.000000 0.000000 0.000000 0.000000 0.000000 2.564553 -3.306023 -0.676700 -0.000000 0.000000 0.000000 4.606306 -6.983891 -5.282467 1.949402 5.679005 9.240735 0.000000 0.000000 0.000000 0.000000 0.000000 0.000000 -6.373233 0.112435 -138.723558 -2.336356 1.465197 0.984777 3.880124 2.426329 -0.494864 0.000000 0.000000 0.000000 -4.554385 -0.418976 -138.229772 -1.320463 -0.121971 0.444973 2.282250 -3.221323 0.108790 0.000000 0.000000 0.000000
421.265577 47.822102 94.981053 -4.651239 5.661800 131.761324 1.624759 -0.058848 -130.821529 0.665591 -0.644638 0.760051 4.854360 -6.404449 -1.184490 0.000000 0.000000 0.000000 4.854360 -6.404449 -1.184490 1.674716 -1.488113 -0.892528 105.957978 -16.912471 -131.297410 94.799179 -38.484326 -155.874509 0.000000 0.000000 0.000000 0.000000 0.000000 0.000000 4.854360 -6.404449 -1.184490 -0.000000 0.000000 0.000000 8.353251 -12.586078 -9.151812 0.403793 10.448034 14.882038 0.000000 0.000000 0.000000 0.000000 0.000000 0.000000 -12.157677 -0.955382 -133.178711 -4.220052 2.679160 1.736308 6.914664 3.887438 -1.283258 0.000000 0.000000 0.000000 -8.543105 -1.478773 -132.330030 -2.130872 -0.282080 0.799160 4.059921 -5.469009 0.409712 0.000000 0.000000 0.000000
422.184942 49.541259 95.920674 -6.977969 8.424201 127.167429 1.919681 0.079591 -125.628691 0.974257 -0.919883 1.120375 6.867586 -9.271491 -1.557595 0.000000 0.000000 0.000000 6.867586 -9.271491 -1.557595 2.016833 -1.697984 -1.123465 103.645471 -20.113406 -130.422627 83.724977 -37.733367 -159.020278 0.000000 0.000000 0.000000 0.000000 0.000000 0.000000 6.867586 -9.271491 -1.557595 -0.000000 0.000000 0.000000 11.465076 -16.688293 -11.839839 -1.873565 13.503231 18.795816 0.000000 0.000000 0.000000 0.000000 0.000000 0.000000 -17.247644 -2.579783 -128.897271 -5.586542 3.636481 2.201630 9.076043 4.387576 -2.245809 0.000000 0.000000 0.000000 -12.027605 -2.727017 -127.808588 -2.433491 -0.474246 1.065032 5.349380 -6.774834 0.825966 0.000000 0.000000 0.000000
422.989478 50.515576 96.718836 -9.351013 11.170325 125.719354 1.864216 0.102357 -123.480672 1.314484 -1.201537 1.466368 8.600953 -11.895730 -1.829758 0.000000 0.000000 0.000000 8.600953 -11.895730 -1.829758 2.032946 -1.545957 -1.219361 101.089834 -23.527527 -128.390453 74.059361 -38.700616 -162.093207 0.000000 0.000000 0.000000 0.000000 0.000000 0.000000 8.600953 -11.895730 -1.829758 -0.000000 0.000000 0.000000 14.137781 -19.443857 -13.617288 -3.984786 14.981412 21.477906 0.000000 0.000000 0.000000 0.000000 0.000000 0.000000 -21.805558 -3.620344 -127.355737 -6.389301 4.335243 2.340845 10.356827 3.967084 -3.309019 0.000000 0.000000 0.000000 -15.239849 -3.372218 -126.239860 -2.227716 -0.695052 1.245549 6.163631 -7.181429 1.308523 0.000000 0.000000 0.000000
423.679186 50.745052 97.375538 -11.811105 13.925799 128.621372 1.463949 -0.054361 -125.562250 1.723682 -1.518751 1.800667 10.046843 -14.274408 -2.033487 0.000000 0.000000 0.000000 10.046843 -14.274408 -2.033487 1.722646 -1.030178 -1.178769 98.276191 -27.884765 -125.252670 66.440766 -42.048833 -164.536979 0.000000 0.000000 0.000000 0.000000 0.000000 0.000000 10.046843 -14.274408 -2.033487 -0.000000 0.000000 0.000000 16.503175 -21.083188 -14.719758 -5.593481 15.133085 23.130409 0.000000 0.000000 0.000000 0.000000 0.000000 0.000000 -26.042372 -2.811584 -129.388957 -6.598782 4.771652 2.128044 10.756749 2.679327 -4.444098 0.000000 0.000000 0.000000 -18.375381 -2.506037 -128.653908 -1.509213 -0.943500 1.343764 6.510282 -6.725919 1.833151 0.000000 0.000000 0.000000
425.053641 47.398956 98.379154 -20.964610 22.309626 148.122159 -0.447374 -0.537959 -141.331790 3.724499 -2.796855 3.026015 14.120452 -21.426081 -2.362929 0.000000 0.000000 0.000000 14.120452 -21.426081 -2.362929 0.963988 0.101077 -1.004048 94.932555 -34.347052 -120.156006 58.086013 -48.480295 -167.261220 0.000000 0.000000 0.000000 0.000000 0.000000 0.000000 14.120452 -21.426081 -2.362929 -0.000000 0.000000 0.000000 22.444788 -23.268305 -16.383727 -12.448756 13.394687 25.690263 0.000000 0.000000 0.000000 0.000000 0.000000 0.000000 -37.187067 7.324060 -141.368189 -5.377209 5.338122 0.286675 8.893897 -2.549448 -7.223715 0.000000 0.000000 0.000000 -26.371588 6.553270 -143.921559 2.668418 -1.808643 1.356107 5.388061 -2.810874 2.955183 0.000000 0.000000 0.000000
426.914873 42.100246 99.629871 -26.191629 28.464078 158.962378 -1.109054 -0.244434 -148.749985 4.676895 -3.768970 4.084999 16.021308 -27.226062 -2.709497 0.000000 0.000000 0.000000 16.021308 -27.226062 -2.709497 -0.028653 1.424914 -0.683072 89.991763 -44.925293 -112.763475 48.408627 -60.500330 -170.377279 0.000000 0.000000 0.000000 0.000000 0.000000 0.000000 16.021308 -27.226062 -2.709497 -0.000000 0.000000 0.000000 21.661867 -20.641825 -15.260426 -7.195248 8.996082 22.369476 0.000000 0.000000 0.000000 0.000000 0.000000 0.000000 -41.398623 16.229177 -144.322681 -3.256097 5.068129 -1.744503 5.398750 -8.886690 -10.550557 0.000000 0.000000 0.000000 -29.048477 14.864987 -150.532597 5.983402 -2.405474 1.306683 3.640744 2.264800 4.398432 0.000000 0.000000 0.000000
424.388585 45.150157 96.797697 -23.103410 26.010253 157.842919 -2.881620 -0.076942 -149.231201 5.225691 -3.922811 3.594871 11.772300 -22.872611 -3.253295 0.000000 0.000000 0.000000 11.772300 -22.872611 -3.253295 -1.151189 2.764089 -0.229639 89.596952 -49.737860 -108.069742 58.873243 -69.474980 -159.363528 0.000000 0.000000 0.000000 0.000000 0.000000 0.000000 11.772300 -22.872611 -3.253295 -0.000000 0.000000 0.000000 20.691142 -23.052072 -16.097354 -4.310113 8.877959 21.531292 0.000000 0.000000 0.000000 0.000000 0.000000 0.000000 -37.252906 15.349590 -145.516729 -2.990985 4.779591 -1.747398 3.740609 -9.409411 -10.201224 0.000000 0.000000 0.000000 -25.903648 14.056113 -150.954499 5.610783 -2.030335 0.946049 3.570116 1.698579 4.005585 0.000000 0.000000 0.000000
